<svg width="602" height="227" viewBox="0 0 602 227" fill="none" xmlns="http://www.w3.org/2000/svg">
<path d="M0.698975 93.0456V77.1365H63.9092V93.0456H42.0342V149.864H22.574V93.0456H0.698975Z" fill="#193C40"/>
<path d="M71.9092 149.864V77.1365H124.324V93.0456H91.6535V105.546H121.625V121.455H91.6535V133.955H124.182V149.864H71.9092Z" fill="#193C40"/>
<path d="M195.25 77.1365V149.864H178.773L152.494 111.654H152.068V149.864H132.324V77.1365H149.085L174.938 115.205H175.506V77.1365H195.25Z" fill="#193C40"/>
<path d="M266.176 77.1365V149.864H249.699L223.42 111.654H222.994V149.864H203.25V77.1365H220.011L245.864 115.205H246.432V77.1365H266.176Z" fill="#193C40"/>
<path d="M274.176 149.864V77.1365H285.149V108.742H321.406V77.1365H332.415V149.864H321.406V118.152H285.149V149.864H274.176Z" fill="#193C40"/>
<path d="M404.415 113.5C404.415 121.087 403.027 127.61 400.252 133.068C397.477 138.504 393.673 142.691 388.84 145.628C384.03 148.543 378.56 150 372.432 150C366.281 150 360.788 148.543 355.955 145.628C351.145 142.691 347.352 138.493 344.577 133.034C341.802 127.575 340.415 121.064 340.415 113.5C340.415 105.913 341.802 99.4019 344.577 93.9663C347.352 88.5074 351.145 84.3208 355.955 81.4064C360.788 78.4688 366.281 77 372.432 77C378.56 77 384.03 78.4688 388.84 81.4064C393.673 84.3208 397.477 88.5074 400.252 93.9663C403.027 99.4019 404.415 105.913 404.415 113.5ZM393.8 113.5C393.8 107.717 392.864 102.848 390.99 98.8931C389.14 94.9146 386.597 91.9076 383.359 89.8722C380.145 87.8135 376.502 86.7842 372.432 86.7842C368.339 86.7842 364.685 87.8135 361.471 89.8722C358.256 91.9076 355.712 94.9146 353.839 98.8931C351.989 102.848 351.064 107.717 351.064 113.5C351.064 119.283 351.989 124.163 353.839 128.142C355.712 132.097 358.256 135.104 361.471 137.163C364.685 139.198 368.339 140.216 372.432 140.216C376.502 140.216 380.145 139.198 383.359 137.163C386.597 135.104 389.14 132.097 390.99 128.142C392.864 124.163 393.8 119.283 393.8 113.5Z" fill="#193C40"/>
<path d="M412.415 77.1365H425.732L448.885 133.671H449.737L472.891 77.1365H486.207V149.864H475.767V97.2359H475.092L453.643 149.757H444.979L423.53 97.2004H422.855V149.864H412.415V77.1365Z" fill="#193C40"/>
<path d="M494.208 149.864V77.1365H539.804V86.5825H505.181V108.742H537.425V118.152H505.181V140.418H540.23V149.864H494.208Z" fill="#193C40"/>
<path d="M589.893 96.582C589.522 93.3068 587.992 90.7697 585.302 88.9706C582.613 87.1485 579.228 86.2374 575.148 86.2374C572.226 86.2374 569.699 86.6987 567.566 87.6213C565.433 88.5209 563.775 89.7663 562.593 91.3578C561.434 92.9262 560.854 94.7137 560.854 96.7204C560.854 98.4041 561.248 99.8572 562.037 101.08C562.848 102.302 563.903 103.328 565.201 104.159C566.523 104.966 567.937 105.646 569.444 106.2C570.951 106.73 572.4 107.169 573.791 107.515L580.747 109.314C583.019 109.867 585.349 110.617 587.737 111.563C590.125 112.508 592.339 113.754 594.379 115.299C596.419 116.844 598.066 118.759 599.317 121.042C600.593 123.326 601.23 126.059 601.23 129.242C601.23 133.255 600.187 136.818 598.1 139.932C596.037 143.046 593.034 145.502 589.093 147.301C585.175 149.1 580.434 150 574.869 150C569.537 150 564.923 149.158 561.028 147.474C557.133 145.791 554.084 143.403 551.882 140.313C549.679 137.199 548.462 133.509 548.23 129.242H559.011C559.22 131.802 560.054 133.935 561.515 135.642C562.999 137.326 564.888 138.583 567.184 139.413C569.502 140.221 572.041 140.624 574.8 140.624C577.837 140.624 580.538 140.151 582.903 139.206C585.291 138.237 587.169 136.899 588.537 135.192C589.905 133.463 590.588 131.444 590.588 129.138C590.588 127.039 589.986 125.321 588.78 123.983C587.598 122.645 585.986 121.538 583.946 120.662C581.929 119.785 579.645 119.012 577.095 118.344L568.679 116.06C562.976 114.515 558.455 112.243 555.116 109.245C551.801 106.246 550.143 102.279 550.143 97.3431C550.143 93.2607 551.256 89.6972 553.482 86.6526C555.707 83.6081 558.721 81.2439 562.524 79.5602C566.326 77.8534 570.615 77 575.391 77C580.213 77 584.468 77.8419 588.154 79.5256C591.864 81.2093 594.785 83.5273 596.918 86.4796C599.051 89.4088 600.164 92.7763 600.256 96.582H589.893Z" fill="#193C40"/>
<path fill-rule="evenodd" clip-rule="evenodd" d="M24 45.1139L65.6404 40.1924L73.8589 0L91.1178 37.7316L131.936 33.6304L101.528 61.2455L104.906 69H59.3753L60.1614 65.3468L24 45.1139ZM73.7799 158L83.3267 171.361L58.0344 204.479L97.5598 192.573L121.286 226.418L122.496 185.28L161.774 173.257L123.1 159.571L123.118 158H73.7799ZM223.989 69L232.43 49.0801L198.652 69H223.989ZM196.021 69L165.603 42.9021L171.741 69H196.021Z" fill="#193C40"/>
</svg>
